<svg width="300" height="48" viewBox="0 0 300 48" fill="none" xmlns="http://www.w3.org/2000/svg">
<rect width="300" height="48" rx="4" fill="white"/>
<path fill-rule="evenodd" clip-rule="evenodd" d="M34.52 24.2729C34.52 23.422 34.4436 22.6038 34.3018 21.8184H23V26.4602H29.4582C29.18 27.9602 28.3345 29.2311 27.0636 30.082V33.0929H30.9418C33.2109 31.0038 34.52 27.9274 34.52 24.2729Z" fill="#4285F4"/>
<path fill-rule="evenodd" clip-rule="evenodd" d="M22.999 36.0003C26.239 36.0003 28.9554 34.9257 30.9408 33.093L27.0627 30.0821C25.9881 30.8021 24.6136 31.2275 22.999 31.2275C19.8736 31.2275 17.2281 29.1166 16.2845 26.2803H12.2754V29.3894C14.2499 33.3112 18.3081 36.0003 22.999 36.0003Z" fill="#34A853"/>
<path fill-rule="evenodd" clip-rule="evenodd" d="M16.2855 26.2804C16.0455 25.5604 15.9091 24.7913 15.9091 24.0004C15.9091 23.2095 16.0455 22.4404 16.2855 21.7204V18.6113H12.2764C11.4636 20.2313 11 22.0641 11 24.0004C11 25.9368 11.4636 27.7695 12.2764 29.3895L16.2855 26.2804Z" fill="#FBBC05"/>
<path fill-rule="evenodd" clip-rule="evenodd" d="M22.999 16.7727C24.7608 16.7727 26.3427 17.3782 27.5863 18.5673L31.0281 15.1255C28.9499 13.1891 26.2336 12 22.999 12C18.3081 12 14.2499 14.6891 12.2754 18.6109L16.2845 21.72C17.2281 18.8836 19.8736 16.7727 22.999 16.7727Z" fill="#EA4335"/>
<path d="M122.359 16.5527V17.9941C122.359 19.4883 122.359 21.123 121.955 23.3555H124.064V25.166H117.824V31.6348H115.574V25.166H109.475V23.3555H119.688C120.092 21.29 120.127 19.7256 120.127 18.3457H111.145V16.5527H122.359ZM137.934 16.2715V17.3613C137.934 18.3896 137.934 19.6729 137.635 21.2812H139.674V23.0391H125.031V21.2812H135.367C135.631 19.9805 135.684 18.9346 135.701 18.0469H126.824V16.2715H137.934ZM137.863 24.1641V28.6465H128.934V29.7715H138.303V31.4941H126.701V26.959H135.648V25.9043H126.684V24.1641H137.863ZM159.379 27.9961V29.8418H144.736V27.9961H150.906V25.5879H146.424V20.209H155.477V18.4512H146.406V16.6582H157.691V21.9668H148.674V23.7598H158.061V25.5879H153.139V27.9961H159.379ZM173.09 17.0977V19.0137C173.09 21.2109 173.09 23.3906 172.51 26.6953L170.242 26.502C170.84 23.4258 170.84 21.1406 170.857 19.0137V18.8906H161.805V17.0977H173.09ZM174.883 27.6797V29.5254H160.293V27.6797H174.883ZM189.244 15.6387V27.1348H186.994V15.6387H189.244ZM189.666 29.543V31.3359H178.521V25.9746H180.789V29.543H189.666ZM180.473 16.6582C182.934 16.6582 184.85 18.3457 184.85 20.6836C184.85 23.0742 182.934 24.7441 180.473 24.7441C178.012 24.7441 176.096 23.0742 176.096 20.6836C176.096 18.3457 178.012 16.6582 180.473 16.6582ZM180.473 18.6094C179.225 18.5918 178.275 19.3828 178.293 20.6836C178.275 22.0195 179.225 22.793 180.473 22.793C181.686 22.793 182.635 22.0195 182.635 20.6836C182.635 19.3828 181.686 18.5918 180.473 18.6094Z" fill="#1F1F1F"/>
</svg>
