<svg width="300" height="48" viewBox="0 0 300 48" fill="none" xmlns="http://www.w3.org/2000/svg">
<rect width="300" height="48" rx="4" fill="#FEE500"/>
<path d="M109.824 17.1504C109.807 22.0898 108.611 26.2031 102.635 29.1914L101.404 27.5039C104.076 26.1768 105.667 24.6914 106.572 22.916L101.844 23.3555L101.562 21.4395L107.258 21.0879C107.416 20.4199 107.53 19.6992 107.592 18.9434H102.406V17.1504H109.824ZM114.096 15.6211V21.7559H116.363V23.6016H114.096V31.582H111.846V15.6211H114.096ZM125.381 17.1504C125.363 22.0898 124.168 26.2031 118.191 29.1914L116.961 27.5039C119.633 26.1768 121.224 24.6914 122.129 22.916L117.4 23.3555L117.119 21.4395L122.814 21.0879C122.973 20.4199 123.087 19.6992 123.148 18.9434H117.963V17.1504H125.381ZM129.652 15.6211V21.7559H131.92V23.6016H129.652V31.582H127.402V15.6211H129.652ZM139.883 16.4473C143.328 16.4473 145.895 18.1875 145.912 20.8242C145.895 23.2324 143.864 24.8584 140.99 25.1836V27.9082H147.23V29.7539H132.588V27.9082H138.758V25.166C135.893 24.8584 133.871 23.2236 133.871 20.8242C133.871 18.1875 136.438 16.4473 139.883 16.4473ZM139.883 18.2402C137.65 18.2402 136.086 19.2246 136.086 20.8242C136.086 22.5117 137.65 23.4609 139.883 23.4609C142.133 23.4609 143.68 22.5117 143.697 20.8242C143.68 19.2246 142.133 18.2402 139.883 18.2402ZM166.936 27.9961V29.8418H152.293V27.9961H158.463V25.5879H153.98V20.209H163.033V18.4512H153.963V16.6582H165.248V21.9668H156.23V23.7598H165.617V25.5879H160.695V27.9961H166.936ZM180.646 17.0977V19.0137C180.646 21.2109 180.646 23.3906 180.066 26.6953L177.799 26.502C178.396 23.4258 178.396 21.1406 178.414 19.0137V18.8906H169.361V17.0977H180.646ZM182.439 27.6797V29.5254H167.85V27.6797H182.439ZM196.801 15.6387V27.1348H194.551V15.6387H196.801ZM197.223 29.543V31.3359H186.078V25.9746H188.346V29.543H197.223ZM188.029 16.6582C190.49 16.6582 192.406 18.3457 192.406 20.6836C192.406 23.0742 190.49 24.7441 188.029 24.7441C185.568 24.7441 183.652 23.0742 183.652 20.6836C183.652 18.3457 185.568 16.6582 188.029 16.6582ZM188.029 18.6094C186.781 18.5918 185.832 19.3828 185.85 20.6836C185.832 22.0195 186.781 22.793 188.029 22.793C189.242 22.793 190.191 22.0195 190.191 20.6836C190.191 19.3828 189.242 18.5918 188.029 18.6094Z" fill="#1F1F1F" fill-opacity="0.85"/>
<path opacity="0.902" fill-rule="evenodd" clip-rule="evenodd" d="M23 13.2588C16.72 13.2588 11 18.3068 11 22.5775C11 25.7775 13.0773 28.6001 16.2413 30.2775L14.9107 35.1655C14.792 35.5988 15.284 35.9428 15.6613 35.6935L21.4973 31.8201C21.9893 31.8681 22.4907 31.8961 23 31.8961C29.6267 31.8961 35 27.7241 35 22.5775C35 18.3068 29.6267 13.2588 23 13.2588Z" fill="black"/>
</svg>
