<svg width="14" height="13" viewBox="0 0 14 13" fill="none" xmlns="http://www.w3.org/2000/svg">
<path d="M6.5793 0.654979C6.77609 0.348598 7.22391 0.348598 7.4207 0.654979L9.28113 3.55148C9.34883 3.65689 9.45365 3.73305 9.57483 3.76487L12.9045 4.63918C13.2567 4.73166 13.3951 5.15755 13.1645 5.43939L10.9846 8.10383C10.9053 8.2008 10.8653 8.32402 10.8725 8.4491L11.0699 11.886C11.0907 12.2495 10.7285 12.5127 10.3892 12.3805L7.18152 11.1307C7.06478 11.0852 6.93522 11.0852 6.81848 11.1307L3.61084 12.3805C3.27155 12.5127 2.90926 12.2495 2.93014 11.886L3.12754 8.4491C3.13472 8.32402 3.09469 8.2008 3.01535 8.10383L0.835524 5.43939C0.60495 5.15755 0.743331 4.73166 1.09553 4.63918L4.42517 3.76487C4.54635 3.73305 4.65117 3.65689 4.71887 3.55148L6.5793 0.654979Z" fill="#FFBB33"/>
</svg>
